# xmcd
#
# Track frame offsets:
#	150
#	27370
#	44057
#	106407
#	119592
#	196845
#
# Disc length: 2815 seconds
#
# Revision: 1
# Processed by: cddbd v1.5.1PL0 Copyright (c) Steve Scherf et al.
# Submitted via: audiograbber 1.82.02
#
DISCID=520afd06
DTITLE=Col Elliott - Just A Regular Bloke
DYEAR=1900
DGENRE=
TTITLE0=The Back Seat Sat'dy Night
TTITLE1=Ain't Nobody's Business
TTITLE2=Chooka Dennia
TTITLE3=The Tax Man
TTITLE4=Kids, Coppers, Etc
TTITLE5=Hankies From Nanna
EXTD=
EXTT0=
EXTT1=
EXTT2=
EXTT3=
EXTT4=
EXTT5=
PLAYORDER=
